<svg width="24px" height="22px" viewBox="0 0 24 22" version="1.1" xmlns="http://www.w3.org/2000/svg">
  <defs>
    <linearGradient x1="108.735812%" y1="30.1026618%" x2="46.8500043%" y2="65.9827664%" id="linearGradient-1">
      <stop stop-color="#0052CC" offset="17.6%"></stop>
      <stop stop-color="#2684FF" offset="100%"></stop>
    </linearGradient>
  </defs>
  <g stroke="none" stroke-width="1" fill="none" fill-rule="evenodd">
    <g fill-rule="nonzero">
      <path d="M0.77044,0 C0.29089,0 -0.06877,0.43959 0.01115,0.87918 L3.24814,20.7007 C3.32806,21.2203 3.76766,21.5799 4.28717,21.5799 L19.9526,21.5799 C20.3123,21.5799 20.632,21.3002 20.7119,20.9405 L23.9888,0.91915 C24.0688,0.43959 23.7091,0.03997 23.2296,0.03997 L0.77044,0 Z M14.5177,14.3067 L9.5223,14.3067 L8.2035,7.2333 L15.7565,7.2333 L14.5177,14.3067 Z" id="Shape" fill="#2684FF"></path>
      <path d="M22.9098,7.2333 L15.7165,7.2333 L14.5176,14.3067 L9.5222,14.3067 L3.64771,21.3002 C3.64771,21.3002 3.92744,21.54 4.32707,21.54 L19.9925,21.54 C20.3522,21.54 20.6719,21.2602 20.7518,20.9005 L22.9098,7.2333 Z" id="Path" fill="url(#linearGradient-1)"></path>
    </g>
  </g>
</svg>
